<svg width="682" height="980" viewBox="0 0 682 980" fill="none" xmlns="http://www.w3.org/2000/svg">
<path d="M358.6 6.20016C355.6 9.70016 349.1 17.4002 344.3 23.5002C337.9 31.5002 334.8 34.6002 333 34.8002C331.4 34.9002 323.1 31.4002 311.1 25.5002C300.4 20.3002 291.2 16.0002 290.6 16.0002C290 16.0002 285.1 24.9002 279.7 35.7002C274.2 46.6002 269.2 56.5002 268.5 57.6002L267.1 59.7002L245.8 55.3002C234.1 52.9002 223.8 51.1002 222.8 51.2002C221.4 51.4002 223.9 56.0002 235.1 73.5002C256.5 106.9 255.4 104.6 256 117.5L256.5 128.5L367.5 128.8L478.5 129L486.4 155.3C500.6 202.1 508 227.4 507.5 227.8C507.2 228.1 499.3 229.1 489.8 230.1C447.4 234.5 430.2 239.1 416 250C412.4 252.7 408.6 254.9 407.5 255C398.3 255.1 371 227.6 358.9 206L356.3 201.5L367.7 174C380.7 142.4 380.8 142.1 378.9 140.9C376.8 139.6 367.4 139.8 366.3 141.2C364.1 144 343.7 196.6 343.2 200.5C342.9 203.7 343.5 205.9 345.8 210.6C356.3 231.4 375.7 252.8 395.8 266L398.2 267.5L395.1 275.3C393.4 279.6 392 283.6 392 284.2C392 284.9 395.5 281.7 399.9 277.3C416.7 259.9 435.8 251.2 469.6 245.6C475.2 244.7 475.8 246 478.5 264.8C479.9 274.3 482.4 287.3 484.1 293.8C489.9 316.1 490.4 318 489.6 318.7C488.4 320 452.7 320.3 440.8 319.1C426.4 317.7 416.5 315.2 404.3 309.9C373.3 296.2 353.7 277.1 335.5 242.7C332.3 236.8 329.7 232 329.5 232.2C329.4 232.4 324 244.6 317.6 259.5C301.1 297.6 295.3 306.6 281.6 315.8C269.1 324.2 264.9 325.4 248 325.4C233.5 325.5 233.4 325.5 226.7 322.2C218.7 318.2 210.3 310.3 207.2 303.9C202 293 201.6 275.7 206.5 267.4C213.2 256.1 221.2 250.6 232.9 249.4C244.3 248.2 255.1 251.6 264.3 259.2C267 261.4 269.3 263 269.5 262.8C270.6 261.8 263.9 250.1 260.1 246.3C253.4 239.6 246.3 236.7 235.9 236.2C220.8 235.5 208.4 241.3 198.9 253.8C191.3 263.6 189.8 269.9 190.2 289.5L190.5 305.5L179.5 311.8C173.4 315.3 163.8 321.3 158 325.1L147.5 331.9L147 226.7L146.5 121.5L137.2 105C126.1 85.5002 113.2 59.2002 106.5 42.7002L101.7 30.8002L98.5 39.7002C93.7 52.9002 81.7 78.1002 68.6 102.3L57 123.9V253V382H64.5H72V253.9V125.8L80.4 109.6C88 95.2002 98.5 73.1002 101.1 66.2002C102 63.8002 102.5 64.5002 107.4 76.0002C113.3 89.9002 121.4 106.3 128.4 118.5L133 126.5V256.1V385.7L143.5 386.3C161.3 387.4 179.3 392.2 194.3 399.7C201.6 403.3 203 405.3 203 412.1C203 414.2 202.8 416 202.6 416C202.4 416 198.7 414.4 194.5 412.5C176.4 404.2 163.1 402.2 107.5 399.5C72.4 397.7 52.5 395.9 37.3 392.9C24.5 390.5 18.5 388.3 9.7 382.9C6 380.7 2.5 379.2 2 379.5C1.4 379.8 1 384.5 1 389.9V399.7L10.3 403C17.8 405.6 39.8 411.6 49.6 413.5C51.6 413.9 51.7 414.8 52.3 427C52.6 434.1 52.4 443 51.9 446.7C51.1 452.2 51.2 454.8 52.6 460.2C54 465.4 54.1 467.5 53.2 469.2C51.2 473.5 51 475.6 51.9 484.8C52.5 490.4 52.5 497.4 52 502.6C51.3 509.4 51.4 512.2 52.5 515.4C53.3 517.6 54 520.2 54 521C54 521.8 51.7 525.2 48.8 528.5C35.8 543.7 33 562.1 41.2 579C45.1 586.9 53.5 595.6 60.9 599.3C66.1 601.8 67.2 602 80.4 602C93.2 602 95 601.8 99.7 599.5C106.5 596.4 113.7 589.6 119.1 581.4L123.3 575L154.6 606C171.9 623.1 186.4 636.9 186.9 636.6C187.3 636.3 194.6 621.3 203.1 603.3C231.1 543.9 236.5 532.7 237.6 532.3C238.8 531.9 252.8 543.1 328.1 605.2L389.1 655.4L384.8 659.1C382.4 661.2 380.2 662.9 379.8 663C379.1 663 356 644.1 291 590.6C277 579.1 260.2 565.1 253.7 559.7C247.2 554.2 241.7 550 241.6 550.1C241.4 550.3 233 568 223 589.5C213 610.9 202.8 632.4 200.4 637.1C196.1 645.7 196.1 645.8 191.3 646.8C188.7 647.4 184.3 648.2 181.5 648.5C174.2 649.4 173 649.9 173 652.1C173 653.1 175.7 662.3 178.9 672.4C186.1 694.7 190 712.1 190.7 725.6L191.3 735.7L180.9 736.9C164.3 738.9 156.8 740.2 156.4 741.4C156.1 742.1 162.5 763.9 170.5 790C190.4 854.8 190.1 853.6 190.7 871.2C191.4 889.7 190.8 892.3 179.1 922.6C169.4 947.8 166.3 956.7 167.2 957.6C167.8 958.1 180.8 953.2 199 945.6C203.7 943.6 208 942 208.7 942C209.4 942 215.4 949.1 222.1 957.8C228.8 966.4 235.4 974.7 236.8 976.2L239.3 979L242.9 976.8C244.9 975.6 252.4 970.3 259.5 965C266.7 959.8 273.9 954.5 275.6 953.3L278.7 951.1L283.7 954.8C286.4 956.8 294.6 963.4 301.9 969.4C313.9 979.2 315.4 980.2 317.5 979.2C318.8 978.6 325.8 970.8 333 961.8C342.6 950 346.9 945.4 348.7 945.2C350.2 945 357.8 948.1 368.7 953.4C386.9 962.3 391.3 963.5 394.3 960.2C395.1 959.3 399.9 950.1 404.8 939.7C412.9 923.1 414.1 921 416.3 921C417.6 921 425.2 922.4 433.1 924.1C453.1 928.3 461 929.8 461 929.3C461 928.8 461.2 929.2 444.3 902.5C425.5 873 426.6 875.5 426 862.5L425.5 851.5L314.5 851.2L203.5 851L195.1 823.2C190.4 808 183.8 785.8 180.4 774C174.2 752.7 174.2 752.5 176.3 751.8C177.5 751.4 187.5 750.2 198.6 749.1C235.7 745.3 254 740 267.8 729.1C270.6 726.8 273.7 725 274.7 725C283.9 725.1 312.3 753.6 321.6 772.2L325.1 779.2L320.9 789.9C318.5 795.7 313.1 809 308.8 819.4C304.5 829.8 301.1 838.4 301.2 838.5C302 839.1 313.9 839.7 314.7 839.1C315.7 838.5 319.8 829 332.9 797.5L340.7 778.5L336.9 770.8C326.4 749.8 310 730.7 291.1 717.5C286.6 714.4 283 711.6 283 711.4C283 711.1 283.7 709.9 284.4 708.7C285.2 707.5 287.1 703.8 288.5 700.5L291.2 694.5L288.8 696.5C287.6 697.6 282.9 701.9 278.4 706C261.4 721.8 237.1 732.4 214.9 733.7L205.4 734.3L204.2 721.4C202.9 707.1 200.3 693.6 196.5 680.9C193.1 669.5 191.5 662.2 192.3 661.4C193.7 660 215.5 659.2 231.2 660.1C242.8 660.7 250.6 661.7 257.2 663.4C296.9 673.5 325 696.9 347 738.3C349.9 743.7 352.3 748 352.5 747.8C352.6 747.6 357.1 737.4 362.5 725C378.9 687.1 383 679.9 394.6 669C405.6 658.7 417.5 654 432.5 654C452.9 654.1 467.3 661.7 474.6 676.5C482.6 692.7 479.6 712.2 467.4 722.9C460.4 729.1 456.2 730.3 443.1 729.8C429.3 729.3 424.1 727.4 416.6 720.2C412.5 716.2 411.9 715.9 412.5 718C415.4 727.7 422.6 736.2 431.8 740.7C437 743.2 438.5 743.5 448.5 743.5C458.8 743.5 459.9 743.3 466.3 740.3C470.4 738.3 475.1 735 478.4 731.8C490.1 720 495.8 698.3 491.5 681.6C490.7 678.4 490.2 675.5 490.5 675C490.8 674.5 495.3 671.9 500.6 669C505.9 666.2 515.7 660.3 522.4 656L534.5 648.1L535 753.3L535.5 858.5L542.8 871.3C557.4 897 575.4 934.6 578.1 945.4C578.7 948 579.6 949.8 580 949.3C580.4 948.9 582.2 944.2 583.9 939C588.8 924.9 595.6 910.5 611.1 881.8L625 856.1V727.2V598.2L621.9 597.6C620.2 597.3 617.1 597 615 597H611.3L610.7 608.2C610.3 614.4 610 672.2 610 736.6V853.7L600.6 872.1C595.4 882.2 588.8 895.9 586 902.5C583.1 909.1 580.4 914.9 580 915.3C579.6 915.7 578.5 913.9 577.5 911.3C573.7 901.2 565.5 883.9 557.4 868.9L549 853.2V723.6V594H542.8C527.2 594 505.5 588.8 490.2 581.5C480.2 576.7 479 575.3 479 567.8C479 565 479.4 563.9 480.3 564.3C480.9 564.6 485.2 566.5 489.7 568.5C505.8 575.5 521.6 578 564 580C635.1 583.3 658.7 587.3 675.2 598.6C677.2 600 679.4 600.9 679.9 600.5C680.6 600.1 681 595.9 681 590.1V580.3L668.8 576.1C662 573.9 650.7 570.7 643.6 569.1C636.6 567.4 630.6 565.9 630.3 565.6C629.1 564.5 628.8 489.1 629.9 478.7C631 468.6 631 467.7 629 463.4C626.7 458.1 626.4 458.9 634.2 450.2C650 432.6 649.2 407.5 632.2 389.8C628.6 386 624.2 382.7 619.7 380.5C613.3 377.3 612 377 604.1 377C595 377 585 378.9 579.8 381.6C574.9 384.1 567.5 391.6 562.9 398.6L558.7 405.1L527.9 374.5C511 357.7 496.5 344 495.7 344C494.8 344 488.1 357.1 477.5 379.7C458.7 419.8 445.5 446.6 444.2 447.4C443.2 448 415.8 426 343.1 366L292.8 324.6L295.7 322.2C297.2 320.9 299.5 319.2 300.7 318.4C302.8 316.9 304.8 318.5 353.7 358.7C429.4 421.1 440.3 430 440.6 429.7C440.7 429.6 446.9 416.4 454.4 400.3C461.8 384.3 471.9 362.9 476.8 352.7C486.8 332 484.7 333.9 499.9 331.5C504.5 330.7 508.7 329.7 509.1 329.3C509.6 328.8 507.7 321.7 504.9 313.5C493.8 280.5 487.9 248.8 492.3 245.2C492.9 244.6 500.3 243.2 508.5 242C516.8 240.9 524.2 239.7 525.1 239.4C526.5 239 524.9 233.1 514.8 200.7C499.6 151.7 493.3 130.1 492 122C490.5 112.5 490.8 93.5002 492.5 86.3002C493.3 82.8002 499.2 66.7002 505.5 50.4002C511.9 34.1002 517 20.7002 516.8 20.5002C516.6 20.3002 507.7 24.0002 497 28.6002C486.3 33.2002 476.4 37.0002 475 37.0002C471.9 37.0002 468.3 33.4002 457.5 19.5002C448 7.30016 443 2.00016 441.2 2.00016C440.4 2.00016 432.2 7.60016 422.9 14.5002C413.6 21.4002 405.4 27.3002 404.7 27.6002C403 28.2002 395.5 23.1002 379.7 10.3002C372.7 4.60016 366.3 0.000156039 365.6 0.000156039C364.8 0.000156039 361.6 2.80016 358.6 6.20016ZM362 310.5C399.9 340.9 430.5 365 432.7 366.3C434.1 367.1 437.7 360.5 445.1 343.6L449.4 333.7L456.4 334.4C460.2 334.8 463.6 335.2 463.8 335.5C464.2 335.9 439.3 388.1 438.2 389.1C437.8 389.4 410.7 368.1 378 341.6C312.4 288.5 317.5 293.6 320.6 283.7C321.7 280.5 322.5 279.2 323.4 279.7C324 280.2 341.4 294 362 310.5ZM140.4 419.6C140.7 420.5 141 422.7 141 424.6C141 427.1 140.4 428.4 138.3 429.7C135.8 431.3 132.5 431.5 103.5 431.5C79.2 431.5 70.6 431.2 67.7 430.2C62.3 428.3 60.9 423.6 64.3 419.2C65 418.3 73.9 418 102.5 418C135.6 418 139.9 418.2 140.4 419.6ZM285 424.5C289.2 426.7 291.3 431.3 290.7 436.7C290.2 441.8 287.2 445.4 282.4 447C278.2 448.4 273 446.2 269.4 441.5C261.8 431.5 273.7 418.6 285 424.5ZM137.6 448.4C139.8 451.5 139.3 454.8 136.3 456.7C133.8 458.3 130.6 458.5 101 458.4C80 458.4 67.6 457.9 65.9 457.2C60.4 454.9 61.7 447.7 67.9 446.7C69.3 446.4 85.3 446.3 103.3 446.4C134.6 446.5 136.2 446.6 137.6 448.4ZM617.3 466.9C619.1 468.3 619.6 474.5 618.1 476.9C616.6 479.3 609.1 479.9 584 480C558.1 480 553.6 479.7 550.8 477.2C548.5 475.3 548.5 469.7 550.6 467.9C553 466 565.2 465.2 592.1 465.4C610.5 465.5 616.1 465.8 617.3 466.9ZM124.3 473.7L134 474.3V479.7V485H101.1C83 485 67 484.6 65.7 484.1C63.1 483.1 61.6 479.3 62.6 476.6C62.9 475.7 64.6 474.6 66.4 474.1C70 473 110.1 472.7 124.3 473.7ZM348 479.9C351.5 482.4 353 485.7 353 490.8C353 494.5 352.4 495.8 349.6 498.6C346.6 501.6 345.6 502 341 502C336.4 502 335.4 501.6 332.4 498.6C329.4 495.6 329 494.5 329 490.2C329 479.6 339.7 473.8 348 479.9ZM601.8 494.7L619 495.3V500.7V506H584.7C548.4 506 547.8 505.9 546.7 501.3C546 498.2 548.5 495.2 552.3 494.7C557.9 494 583.9 494 601.8 494.7ZM129.5 502.1C132.7 503.6 133.5 505.7 132.6 509.5C132.1 511.3 130.9 512.2 127.8 513.1C123 514.4 71 514.9 66.7 513.7C61.1 512.2 61.2 502.6 66.8 501.4C68.3 501.1 70 500.6 70.5 500.4C71.1 500.2 83.9 500.2 99 500.3C120.2 500.6 127.2 501 129.5 502.1ZM606.3 521.7L619 522.3V527.6V532.8L604.8 533.5C596.9 533.9 580.5 534 568.2 533.8C547.4 533.5 545.7 533.4 544.4 531.6C541.1 527.1 543.3 523.2 549.8 521.9C554.6 521 590 520.8 606.3 521.7ZM410.5 537.1C415.9 542.1 416.5 543.8 414.6 548.4C412.1 554.3 408.7 557 403.8 557C398.6 556.9 395.5 555.3 392.9 551.4C390.8 548.2 390.4 542 392.1 538.9C393.6 536 399 533 402.8 533C405.2 533 407.2 534 410.5 537.1ZM612.9 548.9C617.9 549.9 619 551.1 619 556.1C619 562.6 619.6 562.5 579.8 562.5C545.4 562.5 543.8 562.4 542.4 560.6C539.1 556 541.8 549.4 547.3 548.7C553.6 547.9 608.6 548.1 612.9 548.9ZM281.2 620.2C354.2 678.8 363 686.4 363 691C363 694 360.2 699 358.5 699C357.7 699 338.3 684 315.3 665.7C261.2 622.6 248.8 613 248 613.5C247.6 613.8 243.9 621.2 239.9 630.1L232.5 646.2L225.7 645.7C222 645.5 218.7 645 218.4 644.8C217.5 643.9 242.7 591 244.1 591C244.5 591 261.2 604.1 281.2 620.2Z" fill="#8567E6"/>
<path d="M98.9 124.2C95.5 130.9 95.1 145.7 95.1 270.2L95 384H102H109L108.9 326.7C108.8 295.3 108.5 238 108.1 199.5C107.4 130.6 107.4 129.4 105.3 124.7C104.1 122.1 102.6 120 102.1 120C101.5 120 100.1 121.9 98.9 124.2Z" fill="#8567E6"/>
<path d="M257.8 140.7C254.4 141.2 253.6 142.2 249.9 151.1C242 170 221 222.4 221 223.3C221 223.9 223.1 224 226.3 223.6C236.3 222.3 234.9 224.2 246.4 196.2C259.9 163.2 268.2 141.9 267.8 141.5C267.1 140.9 260.3 140.3 257.8 140.7Z" fill="#8567E6"/>
<path d="M291.6 140.9C290.1 143.2 263 210.4 263 211.7C263 212.8 264.5 213 270.1 212.8L277.2 212.5L291.6 177C299.5 157.5 306 141.2 306 140.7C306 139.7 292.2 139.8 291.6 140.9Z" fill="#8567E6"/>
<path d="M333 140.7C328.1 141.7 328.6 140.6 314.4 175.9C309.2 188.8 305.2 200 305.4 200.7C306 202.2 312.7 202.5 316.3 201.1C318 200.4 319.8 198 321.8 193.8C325.4 186.1 343.2 141.8 342.8 141.5C342.1 140.8 335.3 140.3 333 140.7Z" fill="#8567E6"/>
<path d="M445.4 151.3C439.5 153.6 437.6 155.4 438.3 158.2C439.1 161.4 443.2 163 450.7 163C456.1 163 462.2 161.1 463.5 159.1C464.5 157.3 462.1 154.9 456.5 152.4C450.9 149.7 449.8 149.6 445.4 151.3Z" fill="#8567E6"/>
<path d="M573.1 662.7C573.1 699.5 573.5 756.7 573.9 790L574.6 850.5L577.1 856L579.6 861.5L582.4 856.7C585 852.3 585.3 850.9 586.1 835.7C586.5 826.8 586.9 769.2 587 707.7V596H580H573L573.1 662.7Z" fill="#8567E6"/>
<path d="M456.5 756.2C454.3 756.6 451.5 757.2 450.3 757.5C447 758.3 443.9 763.8 435.6 783.8C427.9 802.2 414 837.4 414 838.5C414 838.8 417.2 839 421.1 838.8L428.1 838.5L434.1 824C447.4 791.9 461.1 757 460.8 756.2C460.6 755.7 458.7 755.7 456.5 756.2Z" fill="#8567E6"/>
<path d="M404.3 768.7C403.9 769.7 397.4 785.8 389.8 804.4C382.2 823.1 376 838.8 376 839.2C376 839.7 379.3 840 383.2 839.8L390.5 839.5L404.7 805C412.5 786 418.9 769.7 418.9 768.7C419 767.2 418 767 412 767C406.2 767 404.8 767.3 404.3 768.7Z" fill="#8567E6"/>
<path d="M366.7 778.7C365.2 778.9 363.3 780.1 362.5 781.3C360.3 784.7 339 836.6 339 838.5C339 838.8 342.3 839 346.3 839H353.5L355.6 833.7C356.8 830.9 362.1 817.8 367.4 804.6C372.8 791.5 376.9 780.2 376.6 779.4C376.1 778 372.8 777.8 366.7 778.7Z" fill="#8567E6"/>
<path d="M222.4 818.4C216.6 821 217.1 823.5 224.1 827.1C230.9 830.5 241.3 829 243.9 824.1C246.8 818.8 231 814.7 222.4 818.4Z" fill="#8567E6"/>
</svg>